<?xml version="1.0" encoding="UTF-8"?> <svg xmlns="http://www.w3.org/2000/svg" xmlns:xlink="http://www.w3.org/1999/xlink" version="1.1" id="Layer_1" x="0px" y="0px" viewBox="0 0 4844.4 1340.6" style="enable-background:new 0 0 4844.4 1340.6;" xml:space="preserve"> <style type="text/css"> .st0{fill:#FFFFFF;} .st1{fill:#7BBB58;} .st2{fill:url(#SVGID_1_);} .st3{fill:url(#SVGID_00000145740292600477368550000016182899175553105328_);} .st4{fill:url(#SVGID_00000042007074250720494720000005309246872635301813_);} .st5{fill:url(#SVGID_00000015341817350533681060000000706838397634467229_);} </style> <g> <g> <g> <path class="st0" d="M931.5,281.7c-5-2.3-10-4.5-15-6.6c-52.6-21.8-107.8-32.8-164.1-32.8c-31.6,0-63.3,3.6-94.2,10.6l-8,1.8 l-7.7-2.9c-20.7-7.9-42-15.1-63.2-21.2l-44.5-25.9c55.6-35.3,157.6-55.8,217.1-55.8c68.7,0,136.1,13.5,200.3,40.1 c4.3,1.8,8.6,3.6,12.9,5.6l5.1-85.6l182.2,220.6l-282.3,18.2L931.5,281.7z"></path> <path class="st0" d="M541.7,1118.9C421,1062.6,327.5,964,278.4,841.1c-49.3-123.4-48.7-258.4,1.8-380.3 c11.5-27.8,25.6-54.6,41.7-79.8l32.1-49.9l16.8,56.9c4.3,14.7,8.3,29.9,11.7,45.3l0.2,0.9c0.8,3.4,1.6,6.8,2.4,10.1l2.4,9.9 l-4.7,9.1c-5.6,10.8-10.9,22-15.6,33.4c-39.2,94.6-41.4,200-6.4,297c34.8,96.4,103.6,176.9,193.7,226.8l12.1,6.7l1.7,13.7 c0.5,3.8,1.1,7.7,1.8,11.5c1.3,7,2.9,13.9,4.8,20.5c0.7,2.6,1.5,5,2.3,7.5l0.7,2l0.2,0.6c0.2,0.6,0.4,1.2,0.6,1.8l21.9,61.4 L541.7,1118.9z"></path> <path class="st0" d="M1004.9,1050.7c10.8-20.6,20.6-43.5,30-70.1l2.3-6.6l5.2-4.6c46.4-41.2,82-91.4,105.9-149 c46.5-112.2,40.6-239.1-16-348.1c-4-7.7-8.2-15.3-12.6-22.6l-10.5-17.5l70.4-63.4c11.2,17.6,35,57.7,44,76.5 c30.4,63.6,47.1,131.3,49.6,201c2.6,72.3-10.1,142.9-37.9,210.1c-39.2,94.6-152.1,220.9-247.1,244L1004.9,1050.7z"></path> <path class="st0" d="M764,1231.8c-5,0-10-0.2-15-0.5c0,0-2.2-0.2-2.7-0.2c-10.3-0.9-20.6-2.6-30.7-5.1l-1-0.2 c-0.5-0.1-1-0.2-1.5-0.4c-14.3-3.7-28.1-8.9-41.1-15.4c-0.8-0.4-1.5-0.7-2.3-1.1c-7.6-3.9-15-8.3-22.1-13.2 c-0.5-0.3-0.9-0.6-1.4-0.9l-0.6-0.4c-11-7.7-21.3-16.5-30.7-26.2c-0.6-0.6-1.1-1.1-1.6-1.7c-5.7-6-11.2-12.5-16.1-19.1 c-0.5-0.6-0.9-1.2-1.3-1.8l-2.7-3.6l-0.1-0.2c-0.8-1.1-1.5-2.2-2.2-3.2c-5.6-8.3-10.6-17.1-14.9-26c-0.2-0.4-0.4-0.8-0.6-1.2 l-0.4-0.7c-3.9-8.3-7.4-16.8-10.2-25.4l-0.1-0.4c-0.8-2.5-1.6-5-2.3-7.6c-4.2-14.4-6.9-29.5-8.2-44.9c-0.1-0.9-0.2-1.9-0.2-2.8 c-0.8-11.8-0.8-23.6,0-35.3l0.2-3c6.8-80.7,52.1-158.6,118.2-203.3c19.9-13.5,43-26,72.6-39.5c4.4-2,8.9-4,13.4-5.9 c-32.6,0.7-65.2,1.3-97.9,2c-1.4,0-2.8,0-4.1,0c-34.8,0-69.2-9-99.5-26C456.7,662.3,407.5,562,383.8,487.8 c-5.2-16.2-9.6-32.6-13.6-50.2c-9.9-44.2-23.5-85.9-40.4-123.9c-3.8-8.5-7.8-17-11.7-25c-10.5-21.3-22.2-42.3-34.7-62.5 l-24.1-38.8l45.6-2.6c16.5-0.9,33.2-1.4,49.5-1.4c65.7,0,130.9,7.6,193.7,22.6c155.9,37.2,298,119.1,422.4,243.4 c68.1,68,130.2,148.9,180.3,234.5l15.9,27.7l-19.7,23.1c-33.8,43.7-51.1,103.4-69.4,166.4c-18.3,63.2-37.3,128.6-74.8,187.1 c-25.8,40.3-57.2,72.3-95.9,97.8c-3.2,2.1-6.3,4.1-9.4,6l-0.3,0.2l-1,0.6c-1.8,1.1-4,2.4-6.7,3.9l-0.2,0.1 c-26.6,14.8-55.4,25.2-85.5,31.1C790.8,1230.5,777.3,1231.8,764,1231.8C764,1231.8,764,1231.8,764,1231.8z"></path> </g> <g> <path class="st1" d="M652.2,226.8c-21.5-8.2-43.3-15.5-65.4-21.9c110.8-39.5,236.8-39.5,355,9.4c16.6,6.9,32.6,14.5,47.9,22.9 l3.5-57.6l104.5,126.5l-161.2,10.4l39.3-42.3c-15.7-8.8-32-16.7-49-23.8C836.3,212.9,740.6,206.7,652.2,226.8z"></path> <linearGradient id="SVGID_1_" gradientUnits="userSpaceOnUse" x1="455.5209" y1="1076.9601" x2="276.171" y2="371.0083"> <stop offset="0" style="stop-color:#006935"></stop> <stop offset="1" style="stop-color:#7BBB58"></stop> </linearGradient> <path class="st2" d="M552.3,1092.4c0.3,0.8,0.5,1.5,0.8,2.3c-236-110.1-346.8-384.3-247.9-623.1c11.1-26.7,24.3-51.9,39.5-75.5 c4.3,14.5,8.1,29.3,11.5,44.5l0,0.1c0.8,3.6,1.6,7.1,2.5,10.6c-6,11.5-11.6,23.4-16.7,35.6c-86.8,209.6,2.2,448.7,199.2,557.9 c0.5,4.4,1.2,8.7,2,13c1.4,7.9,3.3,15.6,5.5,23.2c0.8,2.9,1.7,5.7,2.6,8.4l1,2.9L552.3,1092.4z"></path> <linearGradient id="SVGID_00000120516657511467327080000008717413792159116976_" gradientUnits="userSpaceOnUse" x1="1043.4532" y1="1042.3464" x2="1113.5964" y2="831.917"> <stop offset="0" style="stop-color:#026936"></stop> <stop offset="0.9993" style="stop-color:#000000"></stop> </linearGradient> <path style="fill:url(#SVGID_00000120516657511467327080000008717413792159116976_);" d="M1210.1,846.4 c-38.3,92.5-102.6,166.5-181.2,217.3c12.6-24,22.7-48.7,31.5-73.6c47.8-42.5,86.9-96,112.9-158.9c51.5-124.4,41.1-259.2-17-371 c-4.2-8.1-8.7-16.1-13.4-24l27.2-29.2l0.1-1.5c10.7,16.8,20.3,34.1,28.8,52C1255.7,576.1,1263.9,716.5,1210.1,846.4z"></path> <g> <linearGradient id="SVGID_00000049914159613185396320000014406093343411750054_" gradientUnits="userSpaceOnUse" x1="767.36" y1="930.9362" x2="810.6049" y2="1536.3639" gradientTransform="matrix(0.9526 -0.3043 0.3043 0.9526 -422.0589 -466.8362)"> <stop offset="0" style="stop-color:#006935"></stop> <stop offset="1" style="stop-color:#7BBB58"></stop> </linearGradient> <polygon style="fill:url(#SVGID_00000049914159613185396320000014406093343411750054_);" points="400.2,284.8 610.4,683 1001.4,676.5 983.7,586.8 792.6,363.8 457,240.5 "></polygon> <rect x="729.6" y="510.3" transform="matrix(0.9526 -0.3043 0.3043 0.9526 -119.7468 277.3699)" class="st0" width="200.8" height="25.1"></rect> <g> <path class="st0" d="M741.2,538.1l-12.6,4l8.8,27.7l-37.8,12.1l-19.3-60.4l-47.2,15.1l-69.6,22.2c-4.5-2.8-10.1-3.7-15.5-2 c-5.4,1.7-9.5,5.7-11.5,10.6c-1.6,3.9-1.9,8.3-0.5,12.7c1.4,4.3,4.2,7.8,7.8,10c4.4,2.8,10.1,3.7,15.5,2 c5.4-1.7,9.5-5.7,11.5-10.6l68-21.7l26.1-8.3l12.1,37.8L645,599.3l-49.5,15.8c-4.5-2.8-10.1-3.7-15.5-2 c-5.4,1.7-9.5,5.7-11.5,10.6c-1.6,3.9-1.9,8.3-0.5,12.7c1.4,4.3,4.2,7.8,7.8,10c4.4,2.8,10.1,3.7,15.5,2 c5.4-1.7,9.5-5.7,11.5-10.6l43.7-14l37.9-12.1l15.4,48.3l33.8-0.2l57.1-18.3c4.4,2.8,10.1,3.7,15.5,2 c5.4-1.7,9.5-5.7,11.5-10.6c1.6-3.9,1.9-8.3,0.5-12.6c-1.4-4.3-4.2-7.8-7.7-10c-4.5-2.8-10.1-3.7-15.5-2 c-5.4,1.7-9.5,5.7-11.5,10.6l-65.2,20.8L707,604.5l60.4-19.3l-8.8-27.7l15.2-4.8"></path> </g> <path class="st0" d="M788.7,420.2l-67.2,21.5l8.8,27.7l-152,48.6c-2,4.9-6.1,8.9-11.5,10.6s-11,0.8-15.5-2 c-3.6-2.2-6.4-5.7-7.8-10c-1.4-4.3-1.1-8.8,0.5-12.7c2-4.9,6-8.9,11.5-10.6c5.4-1.7,11-0.8,15.5,2L700.5,454l-11.3-35.2 L497,480.2c-2,4.9-6.1,8.9-11.5,10.6c-5.4,1.7-11,0.8-15.5-2c-3.6-2.2-6.4-5.7-7.8-10c-1.4-4.3-1.1-8.8,0.5-12.7 c2-4.9,6-8.9,11.5-10.6c5.4-1.7,11-0.8,15.5,2l214.9-68.7l9.6,30.2l51-16.3C773.4,408.5,781.2,414.4,788.7,420.2z"></path> <path class="st0" d="M689.9,354.7l-173.7,55.5c-2,4.9-6.1,8.9-11.5,10.6c-9.7,3.1-20.1-2.2-23.2-12c-3.1-9.7,2.2-20.1,12-23.2 c5.4-1.7,11-0.8,15.5,2l151.3-48.3C670.4,344.2,680.3,349.3,689.9,354.7z"></path> <path class="st0" d="M605,315.3l-126.3,40.4L463,335.7l104-33.2C579.9,306.3,592.6,310.6,605,315.3z"></path> <circle class="st0" cx="777.7" cy="476.5" r="18.5"></circle> <path d="M541.8,232.8c-86.2-20.6-166.3-24.4-235.4-20.5c12.1,19.5,24.3,41.1,36,64.8c4.3,8.8,8.4,17.4,12.2,25.9 c18.5,41.5,32.2,84.8,42.1,129c3.1,13.9,7.3,30.2,13,47.9c22.5,70.5,68.1,163.4,160.6,215.4c27.4,15.3,58.4,23.1,89.8,22.5 c157.7-3.2,315.5-6.4,473.3-9.6C1082.8,619.7,895.7,317.4,541.8,232.8z M741.2,538.1c10.9,4.6,21.8,9.5,32.4,14.6 c97.2,46.2,179.1,105.9,179.1,105.9l-219.3,1.3l-33.8,0.2l-54.7,0.3c1.2-12.3,1.6-24.5,1.4-36.5l-43.7,13.9 c-2,4.9-6.1,8.9-11.5,10.6c-5.4,1.7-11,0.8-15.5-2c-3.6-2.2-6.4-5.7-7.8-10c-1.4-4.3-1.1-8.8,0.5-12.7c2-4.9,6-8.9,11.5-10.6 c5.4-1.7,11.1-0.9,15.5,2l49.5-15.8c-1.2-13.5-3.3-26.7-6.1-39.7l-68,21.7c-2,4.9-6.1,8.9-11.5,10.6c-5.4,1.7-11,0.8-15.5-2 c-3.6-2.2-6.4-5.7-7.8-10c-1.4-4.3-1.1-8.8,0.5-12.7c2-4.9,6-8.9,11.4-10.6c5.4-1.7,11.1-0.8,15.5,2l69.6-22.2 c-3.1-11.2-6.6-22.1-10.5-32.7L578.4,518c-2,4.9-6.1,8.9-11.5,10.6c-5.4,1.7-11.1,0.9-15.5-2c-3.6-2.2-6.4-5.7-7.8-10 c-1.4-4.3-1.1-8.8,0.5-12.6c2-4.9,6-8.9,11.5-10.6c5.4-1.7,11-0.8,15.5,2l42.8-13.7c-5-11.7-10.4-23-15.9-33.8l-101,32.3 c-2,4.9-6.1,8.9-11.5,10.6s-11,0.8-15.5-2c-3.6-2.2-6.4-5.7-7.8-10c-1.4-4.3-1.1-8.8,0.5-12.7c2-4.9,6-8.9,11.5-10.6 s11-0.8,15.5,2l96.6-30.9c-6.7-11.6-13.4-22.4-20.1-32.4l-50.1,16c-2,4.9-6.1,8.9-11.5,10.6c-9.7,3.1-20.1-2.3-23.3-12 c-3.1-9.7,2.3-20.1,12-23.2c5.4-1.7,11.1-0.8,15.5,2l43.1-13.8c-9.6-13.2-18.5-24.4-26-33.3l-47.4,15.1L463,335.7l45.9-14.7 c-2.6-2.8-4.1-4.2-4.1-4.2l-80.6-35.3c50.1-0.2,97.9,7.7,142.8,21c12.9,3.8,25.6,8.1,38.1,12.8c19,7.1,37.4,15.2,55.3,23.9 c10.1,5,19.9,10.1,29.6,15.5c26.8,14.9,52,31.2,75.4,48c8,5.8,15.8,11.6,23.4,17.5c32.7,25.3,61.4,51.3,85.6,75.3 c6.6,6.5,12.8,12.9,18.7,19c44.6,46.6,69.6,81.8,70.3,82.9c-48.7-26.4-99.1-45.4-145.3-59c-14.7-4.3-28.9-8.1-42.5-11.4 c-77.6-18.8-135.4-22.1-138.5-22.3C670.9,511.2,706.5,523.4,741.2,538.1z"></path> <linearGradient id="SVGID_00000129916819507368540450000004523397044686344880_" gradientUnits="userSpaceOnUse" x1="1055.8684" y1="1618.8284" x2="684.4849" y2="1767.2122" gradientTransform="matrix(0.9526 -0.3043 0.3043 0.9526 -422.0589 -466.8362)"> <stop offset="0" style="stop-color:#006935"></stop> <stop offset="1" style="stop-color:#7BBB58"></stop> </linearGradient> <polygon style="fill:url(#SVGID_00000129916819507368540450000004523397044686344880_);" points="680.9,928.9 852,1108.5 928.6,1093.9 1061.4,757 922.5,756.7 778.4,802.7 703.4,843.1 "></polygon> <path d="M946.6,716c-65.5,11.1-129.7,30.1-190.3,57.6c-23.7,10.8-47,22.7-68.6,37.3c-60.1,40.7-100.3,111.1-106.4,183.1 c-0.1,0.9-0.1,1.8-0.2,2.7c-0.8,10.4-0.8,20.9,0,31.3c0.1,0.8,0.1,1.6,0.2,2.3c1.1,13.4,3.5,26.7,7.2,39.8 c0.7,2.4,1.4,4.7,2.2,7.1l0,0c2.5,7.5,5.5,15,8.9,22.3c0.3,0.6,0.5,1.1,0.8,1.7c3.8,7.8,8.2,15.4,13.1,22.8c1.3,2,2.8,4,4.2,6 l0,0c0.3,0.5,0.7,0.9,1.1,1.4c4.4,6,9.2,11.6,14.3,17c0.4,0.4,0.8,0.9,1.2,1.3c8.3,8.6,17.2,16.2,26.9,22.9c0.5,0.3,1,0.7,1.5,1 c6.2,4.3,12.7,8.2,19.5,11.6c0.5,0.3,1.1,0.6,1.7,0.8c11.5,5.8,23.7,10.3,36.2,13.6c0.7,0.2,1.3,0.3,2,0.5 c8.7,2.1,17.6,3.6,26.7,4.4c0.8,0.1,1.5,0.1,2.3,0.2c15.7,1.1,31.7,0.2,47.7-2.9c27-5.3,53.2-14.8,77.6-28.3 c2.2-1.3,4.3-2.5,6.1-3.5c0.1-0.1,0.2-0.1,0.3-0.2c3.2-1.9,6.3-3.9,9.4-5.9c38.2-25.2,66.3-55.9,88-89.8 c75.6-117.9,73.8-273.5,153.7-365.2C1073.7,697.3,1006,705.9,946.6,716z M761.1,997.6L746.7,984l-17.4-16.5l-12-11.3l35.5-13.1 l27.2-10l41.8-15.4l22.4-8.2l27-9.9l-13.5,12l-70,62.3L761.1,997.6z M819.7,1051l-27.7-25.8l-7.8-7.3l44.9-37.3l20.7-17.2 L819.7,1051z M909.5,1058.3l-7.3,16.4l-31.5,10.1l-26.1-16.6L917,895.1l108.2-95.6L909.5,1058.3z M878.1,860.4l-161.4,66.4 l-20,8.2l11.9-33.6l15.8-44.7l114.9-57.1l182-29.4L878.1,860.4z"></path> <g> <g> <path class="st0" d="M633.5,977.6c0.5,5.2-1.3,10.7-5.3,14.7c-4,4-9.4,5.8-14.7,5.4l-32.3,32.7c-0.1-0.8-0.1-1.5-0.2-2.3 c-0.7-10.4-0.7-20.9,0-31.3l15.5-15.7c-0.5-5.3,1.3-10.7,5.3-14.7c4-4,9.4-5.8,14.6-5.4c4.2,0.3,8.3,2.1,11.5,5.3 C631.4,969.3,633.2,973.4,633.5,977.6z"></path> <path class="st0" d="M687.9,1012.8c0.5,5.2-1.3,10.7-5.2,14.7c-4,4-9.4,5.8-14.7,5.4l-51.4,51.9l-16.2,16.3 c-0.3-0.6-0.5-1.1-0.8-1.7c-3.5-7.3-6.4-14.7-8.9-22.3l0,0l10.1-10.2l50.2-50.7c-0.5-5.2,1.3-10.7,5.3-14.7 c4-4,9.4-5.9,14.6-5.4c4.2,0.3,8.3,2.1,11.5,5.3C685.7,1004.5,687.5,1008.6,687.9,1012.8z"></path> </g> <path class="st0" d="M710.6,1072.4c0.5,5.2-1.3,10.7-5.3,14.7c-4,4-9.4,5.9-14.6,5.4l-56.4,57c-0.4-0.4-0.8-0.8-1.2-1.3 c-5.1-5.3-9.8-11-14.3-17l55-55.5c-0.5-5.2,1.3-10.7,5.3-14.7c4-4,9.4-5.8,14.6-5.4c4.2,0.3,8.3,2.1,11.5,5.3 C708.5,1064.2,710.3,1068.3,710.6,1072.4z"></path> <path class="st0" d="M800.3,1068.3c0.5,5.2-1.3,10.7-5.2,14.7c-4,4-9.4,5.9-14.7,5.4l-96.6,97.6c-0.6-0.3-1.1-0.5-1.7-0.8 c-6.7-3.4-13.2-7.3-19.5-11.6l100.8-101.9c-0.5-5.2,1.3-10.7,5.3-14.7c4-4,9.4-5.9,14.7-5.4c4.2,0.3,8.3,2.1,11.5,5.3 C798.1,1060,800,1064,800.3,1068.3z"></path> <path class="st0" d="M810.3,1153.9c-4,4-9.4,5.8-14.6,5.4l-44.8,45.3c-0.8-0.1-1.5-0.1-2.3-0.2c-9-0.8-17.9-2.3-26.7-4.4 l56.9-57.5c-0.5-5.2,1.3-10.7,5.3-14.7c7.2-7.3,18.9-7.3,26.2-0.1C817.5,1134.9,817.5,1146.6,810.3,1153.9z"></path> </g> <circle class="st0" cx="415.5" cy="331.7" r="18.5"></circle> </g> </g> </g> <g> <g> <path class="st0" d="M1786.4,415.3l-118.5,344.3l2,64.2l-144.5-408.5h-102.2l174.4,475.6h115.8l174.4-475.6H1786.4z"></path> <path class="st0" d="M2296,694c0-36.8-7.8-69.4-23.5-97.8c-15.7-28.4-37.7-50.3-66.1-65.8c-28.4-15.4-60.5-23.2-96.4-23.2 c-37.3,0-70.2,8-98.8,23.9c-28.6,15.9-50.9,38.6-66.8,68.1c-15.9,29.5-23.9,63.8-23.9,102.9c0,38.6,8.1,72.7,24.2,102.2 c16.1,29.5,38.6,52.4,67.5,68.5c28.8,16.1,61.4,24.2,97.8,24.2c45,0,82.9-11.7,113.8-35.1c30.9-23.4,51.8-53.3,62.7-89.6h-102.9 c-15,30.5-40.2,45.7-75.6,45.7c-24.5,0-45.2-7.7-62-23.2c-11.2-10.4-19.3-23.4-24-39l-74-25.1h345.3 C2295.1,719.8,2296,707.6,2296,694z M2018,666.7c3.6-25.4,13.5-45.3,29.6-59.6c16.1-14.3,36-21.5,59.6-21.5 c25,0,46.1,7.4,63.4,22.1c17.2,14.8,26.1,34.4,26.6,58.9H2018z"></path> <path class="st0" d="M2509.6,525.9c-25.3,15.6-42.1,40.6-47.2,71.9c-0.4,2.5-0.8,4.9-1.1,7.4c-0.1,0.9-0.2,1.8-0.3,2.7v-94.6 h-95.4v377.5h95.4V702.8c0-35,7.6-59.5,22.8-73.6c15.2-14.1,37.8-21.1,67.8-21.1l25.2,0c0-33.4,0-66.8-0.1-100.2 c0-2.1-37.9,5.2-41.2,6.3C2526.1,517.1,2517.4,521,2509.6,525.9z"></path> <path class="st0" d="M2802.3,815.2c-27.2,0-48.8-9.9-64.7-29.6c-15.9-19.8-23.9-47.6-23.9-83.5c0-36.3,8-64.4,23.9-84.1 c15.9-19.8,37.5-29.6,64.7-29.6c19.1,0,35.1,4.6,48,14c13,9.3,22.2,22.1,27.6,38.5h102.9c-10.5-42.2-31-75-61.7-98.4 c-30.7-23.4-69.4-35.1-116.2-35.1c-36.3,0-68.6,8.1-96.8,24.2c-28.1,16.1-50.2,38.8-66.1,68.1c-15.9,29.3-23.8,63.5-23.8,102.5 c0,39.1,7.9,73.2,23.8,102.5c15.9,29.3,37.9,52,66.1,68.1c28.2,16.1,60.4,24.2,96.8,24.2c46.3,0,84.9-12.1,115.8-36.1 c30.9-24,51.5-56.5,62-97.4H2878C2866.1,798,2840.9,815.2,2802.3,815.2z"></path> <path class="st0" d="M3390,599.9c-17-29.5-40.3-52.4-69.8-68.5c-29.5-16.1-62.5-24.2-98.8-24.2c-36.3,0-69.3,8.1-98.8,24.2 c-29.5,16.1-52.8,39-69.8,68.5c-17,29.5-25.6,63.6-25.6,102.2c0,38.6,8.3,72.7,24.9,102.2c16.6,29.5,39.4,52.4,68.5,68.5 c29.1,16.1,61.8,24.2,98.1,24.2c36.8,0,70.1-8.1,99.8-24.2c29.8-16.1,53.4-39,70.9-68.5c17.5-29.5,26.2-63.6,26.2-102.2 C3415.6,663.5,3407.1,629.5,3390,599.9z M3303.8,763.4c-9.1,16.8-21.2,29.4-36.4,37.8c-15.2,8.4-31.5,12.6-48.7,12.6 c-27.3,0-49.9-9.7-67.8-29c-17.9-19.3-26.9-46.9-26.9-82.8c0-35.9,9.2-63.5,27.6-82.8c18.4-19.3,41.2-29,68.5-29 c27.3,0,50.3,9.7,69.2,29c18.9,19.3,28.3,46.9,28.3,82.8C3317.4,726.2,3312.9,746.6,3303.8,763.4z"></path> <path class="st0" d="M3758.6,722.9c-12.9-15.2-28.3-26.4-46-33.7c-17.7-7.3-40.2-14.3-67.5-21.1c-26.8-6.8-46.6-13.5-59.3-20.1 c-12.7-6.6-19.1-16.2-19.1-29c0-11.3,4.6-20.2,14-26.6c9.3-6.3,22.6-9.5,39.8-9.5c18.6,0,33.5,4.4,44.6,13.3 c11.1,8.8,17.4,20.8,18.7,35.8h91.3c-2.7-38.2-17.5-68.5-44.3-91c-26.8-22.5-62.7-33.7-107.7-33.7c-30.4,0-56.9,5-79.4,15 c-22.5,10-39.7,23.6-51.8,40.9c-12.1,17.3-18.1,36.3-18.1,57.2c0,25.4,6.5,45.7,19.4,60.6c13,15,28.4,26.1,46.3,33.4 c17.9,7.3,41,14.3,69.2,21.1c27.2,7.3,47.1,14,59.6,20.1c12.5,6.1,18.7,15.3,18.7,27.6c0,11.4-5.1,20.7-15.3,27.9 c-10.2,7.3-24.4,10.9-42.6,10.9c-18.6,0-34.2-4.8-46.7-14.3c-12.5-9.5-19.6-21.6-21.5-36.1h-96.1c1.4,23.2,9.2,44.3,23.5,63.4 c14.3,19.1,33.7,34.2,58.3,45.3c24.5,11.1,52.2,16.7,83.1,16.7c30,0,56.2-4.9,78.7-14.7c22.5-9.7,39.7-23.3,51.8-40.5 c12-17.2,18-36.8,18-58.6C3778.3,758.2,3771.6,738.1,3758.6,722.9z"></path> <path class="st0" d="M4272.1,414.6h-111L3990,890.9h100.2l25.1-72.5l-49.2-18.2h244.9l31.3,90.6h100.8L4272.1,414.6z M4147.4,723.9l68.8-199l68.8,199H4147.4z"></path> <path class="st0" d="M4507.1,415.3v475.6h95.4V415.3H4507.1z"></path> </g> </g> </g> </svg> 